<svg xmlns="http://www.w3.org/2000/svg" viewBox="0 0 596 598"><path d="M215 175h2v-1s-2 0-2 1zm84-42a161 161 0 0 1 87 25c-6 0-9 1-7 3 0 0 25 26-11 2-7-5-21-1-25-1l2 2h-1a1 1 0 0 0 1 1c-3 0-10-2-16-8 1 0 1 0 1 1l-2-2c-4 0-5 0-5-1s-1-1-4-1c4-1 7 2 10 1a3.67 3.67 0 0 0 3-1c-2-3-6-1-8-2h-1l1 1h-2c-1-1-1-1-2-1-4-1-7-2-11-3l1 2a3.49 3.49 0 0 0-2-1v1h-1v-1c-1 0-2-2-3-2a3.49 3.49 0 0 0-2 1c5 7 5 7 8 6v1h-2c1 0 1 0 2 1 1 0 1 1 2 1a3.49 3.49 0 0 0-2 1c0 1 0 1 1 2v1h-1l1 1h-2c0 2 1 2 3 1 0 1-1 2 1 3l-1 1c-2 0-3-1-5 0a1 1 0 0 0 1 1v1h-2v1h-1v1h1v1c-5-3-5-3-8-3v1h-1c-1-1-1-1-2 0 1 0 1 0 3 1v1h-1v2a3.49 3.49 0 0 0 2 1v2c1 1 1 1 2 1h-1c0 1 0 1 1 1v1c-1-1-2-1-3-2v1c1 0 1 1 2 2-1-1-3-2-4-3a1 1 0 0 0-1 1l4 4 1 1a3.49 3.49 0 0 1 2 1c-1-1-3-1-5 0a3.49 3.49 0 0 0-2-1c1 1 2 1 2 2a1 1 0 0 1 1 1v-1c-1 1-2 2-3 2v-1c-1 1-3 3-2 4h-2a1 1 0 0 0 1-1 3.67 3.67 0 0 0-3-1c0 1 1 1 1 2s2 1 1 2c-1 0-1 1-2 2 2 3 1 1-1 1s-2 0-4-1a3.49 3.49 0 0 0-1-2c1 0 2 1 3 1s3 1 3 0c1-3-2-4-4-5a3.67 3.67 0 0 1-3-1h-2v-1a1 1 0 0 0-1-1v1c0-1 0-1-1-1l-1 1c0-1-1 0-1 0h-1c0 1 0 1-1 1 0-1-1 0 0 0h-1c-1 1 0 1-1 1 0 1 0 1-1 1h-1c0 1 0 1-1 1a1 1 0 0 1 1 1 55.82 55.82 0 0 0-5 8h-2v1h-2v1h-1a3.67 3.67 0 0 1-1 3s1 1 0 1v1a3.49 3.49 0 0 0-1 2h1l-1 1s2 1 2 2c2-1 3-1 4-3l1 3c0 1 1 2 1 3 0 0-2 1-2 2-1 0 0 0 0 1l-1 1c1 0 1 0 1 1l1-1a3.1 3.1 0 0 0 1-2v1h2c0-1 0-1 1-1 0-1 1-1 2-2v1c0-1 0-1 1-2l-1-1c0-1 1-2 2-3v-1c1-2 0-2-1-4 0-1 0-3 1-3l2-2c1-1 0-3 1-4h2c1 2-2 3-2 5a1.88 1.88 0 0 0 0 3c0 2 0 4 2 4 1 0 3-2 5-2a1 1 0 0 1 1 1l-1 1h-4a1 1 0 0 1-1 1 1 1 0 0 0 1 1h-1v-1a1 1 0 0 0-1 1h1l-1 1c0 2 1 1 1 1 0-1 1-1 1-2a3.49 3.49 0 0 0 1 2v1a1 1 0 0 1-1 1c-1-1-1-1-2-1l-1 1v3c1 1 0 2-1 2 0 1-2 1-3 1s-3 0-4 1h-1s1-1 0-1a3.67 3.67 0 0 0-3 1c-1 0 0-1 0-1h-2a3.49 3.49 0 0 1 1-2v-1s-1 0 0-1v1h1c0-1 0-1-1-1h1c-1-1 0-3 0-4-4 2-4 4-4 7 0 1 0 2-1 2h-3s0 2-1 2v-1a1 1 0 0 0-1 1c-1 1-1 1-1 2a1 1 0 0 1-1 1h-1c-1 0-2 1-3 1v1h-1c0 1-1 1-2 2-1 0-1 0-2-1v1c-1-1-2 0-1 0v1h-2v-1a3.67 3.67 0 0 0-3 1l1 1h-1v1c1 0 2 1 3 1 0 1 0 3 1 3v1l-1 2c-1 2-2 3-2 4h-2c-2 0-4-2-7-2a1.88 1.88 0 0 0-3 0h-1c0 1-1 3-1 4-2 2-3 5-4 7v2c0 1-1 1-1 2 1 1 2 1 3 2l2 2c1 1 3 1 4 1a18.54 18.54 0 0 0 7-2l3-3v-3s2-1 2-2h1a4 4 0 0 1 4-2 1 1 0 0 1 1-1 2.19 2.19 0 0 1 1-3h3c3 0 5-1 7 0h2v1c0 1 0 2 1 2 0 1 2 1 3 2a2.15 2.15 0 0 0 2 2l2 2c0 1 1 1 3 3 0 1 0 3-2 3 0 1-1 0-2 1-1 0-1 0-2-1-1 0-1 0-2 1a1 1 0 0 0 1 1c2 1 3 3 5 3v-1c1 0 1 0 1-1v-2h2a3.49 3.49 0 0 1 1-2h1a3.49 3.49 0 0 0-1-2v-1c-1 0 0-1 1-1a1 1 0 0 1 1 1h1v-1c0-1-1-1-2-2a3.49 3.49 0 0 1-2-1c-1-1 0-1 0-1-4-2-7-5-8-9 0-1 1-1 2-1 0-1 1-1 1 0-1 1-1 1 0 2h1a1 1 0 0 0 1 1l2 2a1 1 0 0 1 1 1h1s-1 1 0 1 2 1 3 2a3.49 3.49 0 0 1 2 1v4c1 1 0 1 0 2a3.67 3.67 0 0 1 3 1c1 0-1 0 0 1a1 1 0 0 1 1 1c1 1 1 3 1 4h2a1 1 0 0 1 1 1h1c0-1 0-1-1-2 0-1 0-1 1-1v-1h1v-1c1 0 1 0 1-1a3.67 3.67 0 0 0-3-1c0-1 0-1-1-2v-2c0 1 1 1 2 1h1c0-1-1-2 0-2h2c0 1 1 2 1 0v1c2 0 0 2 1 2h1c-2 0-2 1-1 2a1 1 0 0 0 1-1v3h1c-1 1-1 0 1 1a1.39 1.39 0 0 1 0 2h1c2 0 4 1 6 1a1 1 0 0 1 1-1c0-1 0-1 1-1h4c1 0 2 0 2-1h3c1-1 0-1 1 1v4c0 3 1 6 0 8 0 1 0 1-1 2-4 2-9 1-14 1-2 0-3 0-4 1-1 0-1 0-2-1s-1-1-3-1h-1l-1-1a4.54 4.54 0 0 0-5 0c-2 0-2 2-2 4-1 4-5 2-8 1-2-2-4-4-6-4-3-1-7-1-8-5v1a1 1 0 0 1-1-1 3.49 3.49 0 0 1 1-2c0-1 1-1 1-2a1 1 0 0 0-1-1 14.39 14.39 0 0 1 2-3h-1a1 1 0 0 0-1 1c-1 0-1-1-2-2-2 1-5 0-8 1h-2c-3-2-8-1-11 0a7.58 7.58 0 0 0-4 2c-1 0-1 0-2-1s-2-1-4-2l-1-1c-1 0-1 1-2 1-1 1-3 2-4 3-2 2-5 4-6 6a21.86 21.86 0 0 1-3 5c-3 3-9 3-11 6v1c-3 4-8 6-9 11a1 1 0 0 1 1 1c-1 6-1 6-5 21 1 1 1 2 3 3 5 13 6 16 14 23 5 5 12 2 17 5h1c13-2 13-2 17-2 3 1 2 5 4 6 3 2 6 0 8 0a7.69 7.69 0 0 0 3 2c1 4 1 4 1 7h-1l1 1v1h-1c0 7 8 14 13 22v1c-1 2 2 3 1 5 0 2-3 2-3 4-1 5-1 5-1 6s0 3 7 7c2 2 2 5 3 7 2 3 7 3 8 7h-1l1 1v1c8 0 20-2 20-3 5-2 9-4 13-6a14.39 14.39 0 0 0 2-3 1 1 0 0 0 1-1c1-3 5-1 6-3 2-2 1-5 1-7 17-11 17-11 18-21-2-1-2-1-2-7-1 0-1-1-2-1a26.64 26.64 0 0 1 6-10c5-8 12-14 16-22 3-5 7-17 6-19v-4h-1a76.15 76.15 0 0 1-9 7c-6 2-6 2-7 1s-2 0-3 0l2-2c-1-2-1-2-3-2-3-4-6-4-7-4l-8-8c-1 0-1-1-2-3q0-4.5-3-6c-1-1-2-1-3-2 0-7-5-5-11-16 2 1 3 3 4 4 1 0 1 0 1-1a3.1 3.1 0 0 0 1-2v2h1c1 1 2 2 2 3a70.51 70.51 0 0 1 9 7 14.39 14.39 0 0 1 2 3c1 3 2 4 2 5 2 1 4 1 5 2 1 2 2 4 4 5 1 2 2 2 2 2 2 8 3 10 4 9 3-1 16-11 17-14v-3c3-2 5-3 7-8a7.58 7.58 0 0 0 2-4v-1a4.38 4.38 0 0 1-1-3h1c0 1 0 0 1-1-1 1-1 1 0 1v-5c0-1-2-4-5-3-2 0-2 0-5-3v-1c0-1-1-2-1-1a3.1 3.1 0 0 1-1 2h1c-1 5-1 5-3 6h1c-1 1-1 1-4 2l-1-1a3.67 3.67 0 0 1-1-3h-1s1-1 0-1h-1v1c0 1 0 1 1 3a7.69 7.69 0 0 1-2-3 7.81 7.81 0 0 0-4-4c-1 0-2-1-3-2-1 0-1 0-1-1s1-1 1-2v-1h1a1 1 0 0 0 1 1c1 0 1 0 2 1h1c1 3 5 4 8 4 2-1 3-1 4-3 0-1 0-1 1-1s2 2 2 2c0 1 0 1 1 0 0 1 1 1 1 0 2 0 4-1 6-1a1 1 0 0 1 1-1l6-5c2 0 4 3 5 2h1a3.49 3.49 0 0 0 2 1 1 1 0 0 0 1-1c0 2-1 1-1 1v1c0 1 1 1 2 1a3.67 3.67 0 0 0 3 1c0-1 1-3 1-4a1 1 0 0 1-1-1h1v1c1 1 3 6 3 7 4 5 8 11 12 17 0 1 0 1 1 1 1 2 2-1 2-2 0-2-1-8-1-11v-4c-1-1-1-5 9-9l5-2c0-1 2 3 4 5l4 1 10 22 6 4 4 5-1 4 2 1v2h2v-4c0-2 0-2 1-2l1-2v-6l3-7 1-12s-1-7 0-7h1a245.19 245.19 0 0 1 2 27c0 5-1 10-1 15l-5 5h-3l5-3h2c0 1-1 2-1 3l1 1v2l-2 2v3h1a3.1 3.1 0 0 1 1-2 213.39 213.39 0 0 1-13 43l-5 4-5 1-13 22 2 7a164.9 164.9 0 0 1-130 64 167.54 167.54 0 0 1-155-104v-2a1 1 0 0 0-1-1 168.34 168.34 0 0 1-11-60c0-38 14-74 36-102 1 0 1-1 2-2v1h-1a4.38 4.38 0 0 0 3-1c1 0 1 0 1 2v1c2-2 2-3 5-2 0 1 0 2 1 1 0 1 1 1 2 1h-1v2c-2-3-4 0-4 0 1 1 1 1 2 0v1c1 0 1 0 2 1 1 0 1 0 1-1h1a1 1 0 0 1-1 1c2 0 5-3 0-1v-1l1-1-1 1h1v-1a1 1 0 0 0 1-1v-1s1 1 1 0a3.49 3.49 0 0 0 1-2v-1h1l-1 1a2.19 2.19 0 0 0 3-1c0-1-1-1-5-3h4l3 3c0 2 0 2 1 3h3c2 1 2 1 5-1l1-1a1 1 0 0 1 1-1c-1-1-1-1-2-1h3v-1l1-1h-1a7.47 7.47 0 0 0 3-3h1c2 0 4-3 6-4s2-1 0-1a3 3 0 0 1-4 0 2.15 2.15 0 0 0 2-2h4c1-1 0-1 0-1l3-3v-2c-1 0-3 1-4 1 0 0-18 4-19 4a1 1 0 0 1-1 1 1 1 0 0 0 1-1c1-1 2-1 2-2v1l1-1h1c10-6 10-6 10-9 2 0 3-1 5-2 2 0 4 1 6 1v1c1 0 1 0 3-1v-1c-1 1-1 1-1 2v1h5v1a1 1 0 0 0 1-1 1 1 0 0 1-1 1h4c2 0 2 0 4-1-2-1-3 0-4 0v-1h-2a9 9 0 0 0 5-1l1-1h9v-1h-7c-1-1-3 0-3 1a1 1 0 0 1-1-1v1c-2-1-2-1-3-1h5c0-1 0-1-1-1h-3c1 0 1 0 3-2h1c0-1 0-1-1-1h-3c1-1 5-2 5-2 1 0 1 0 5-2v-1h2v-1a1 1 0 0 0 1 1v-2h1a1 1 0 0 1-1-1h2c3 0 5-2 7-2s6-2 6-3c2 0 1-1-1-1a28.05 28.05 0 0 0 5-1c-2-1-2-1-4 0 0-1 1-1 3-1 1-1 4-2 4-2h-2c3-1-3 0-4 0a19.52 19.52 0 0 0 7-1c-4 1-5 1-11 2h-1c-1 1-4 2-4 2l3-1a79.78 79.78 0 0 0-16 4v-1a3.1 3.1 0 0 1-2 1h-1a17.59 17.59 0 0 0-6 1c-2 1-5 3-8 4-9 4-9 4-15 7l-3 2a169.72 169.72 0 0 1 97-31zm-131 63a1 1 0 0 0 1-1h1c-1 0-1 0-2 1zm9-10a1 1 0 0 0 1-1h1c-1 0-1 0-1 1v1c-1 1 0 1 1 0v2a1 1 0 0 1-1 1c0-1 1-3 0-2-1 0-1 0-1-1v-1zm5-5l2-2h2v-1 1c0 1 0 1-1 1 0 1-1 2-2 3a1 1 0 0 0 1-1c1 0 0 0 1-1l-1 2a12.38 12.38 0 0 1-3 2l2-2a4.94 4.94 0 0 1-3 1 3.1 3.1 0 0 1 2-1h-1l1-1a3.7 3.7 0 0 0 3-2h-1l-1 1zm268 160v-3c1-1 2-2 2-3s0-1-1-1l2-1v7c1 0 2 0 2 2 0 3-5 4-7 4a3.49 3.49 0 0 0-2 1v2h-2c-1 1-2 1-2 2 2 0 5-1 8-2v-2c4 0 2-1 4-1h2c1-2 1-3 2-5-1 0-2-1-3-1l1-2-2-2c0-3 3-2 4-4a7.56 7.56 0 0 0-1-4 3.49 3.49 0 0 0-2 1l-3 3h-3l-3 6h-3l-1 1c1 0 2-1 3-1v2c1 1 2 1 3 2zM249 227c0-1 0-1-1-1 0-1 2-1 2-1 0-1 0-3-1-2-1 0-1 0 0-1v-1c0-1-1-2-1-3v-2c0-1-1-1 0-2 1 0 2-2 2-2 0-1-1-1-2-1 1 0 1-1 2-1 0-1 0-1-1-1h1v-1l-1 1h-1c-1 0-1 0-2 1l-1 1c0-1 2-2 1-2h-1c0 1 0 1-1 1v1c-1 0-1 0-1 1h1v-1 2l1-1a1 1 0 0 1-1 1s0-1-1 0c0 0 0 1 1 0v1a1 1 0 0 0 1-1 1 1 0 0 1-1 1h-1c-1 1 0 1 0 1h1a1 1 0 0 0-1 1h1a1 1 0 0 1 1-1l-1 1-1 1c0 1 1 0 1 0 0 1 1 1 1 0v2l-1 2a1 1 0 0 1-1-1l-1 1v1c1 0-1 1-1 1l-1 1a1 1 0 0 0 1 1h2c-1 1-1 0-2 0v1c-1 0-1 0-2 1h-1v1a1 1 0 0 0 1 1c0-1 0-1 1-1h2c0-1 2 0 2 0h1c2 1 4-1 4-1zm157 80zm0-2zm1 3zm5-17l-4 27v-2c0 1-1 2 0 2zm-4 30v-1l-1 1c0 1 0 1 1 1zm6-32c-2-4-1 4-1 5 1 4 1 3 2 3a10.07 10.07 0 0 0 1-3 10.56 10.56 0 0 0-2-5zm-7 27h1a1 1 0 0 1-1 1zm-1-9s1 1 1 0-1 0-1 0zm1 3v2c1 0 1 0 1-1a1 1 0 0 0-1-1zm0-1a1 1 0 0 0-1 1c1 0 1 0 1-1zm1 3v1c-1 2 0-1 0-1zm-1 3zm0-1zm0-1v1c-1 0 0 0 0-1-1-2 0-1 0 0zm0-5s1 1 0 1zm-1 0c1 0 1 1 0 1zM259 179h1c0-1 0-1-1-1v1h-1c1 1 1 0 1 0zm-1 6v1h1v-1zm35 4c0-1-2-1-2-1-1 0 1 2 1 2zm-24 3c-1 1-1 2 0 1 0 0 1-1 0-1zm-29 3l2 2h1c1 0 2-1 3-1s2-1 3-1c0-1-1-1 0-2v-1c-1 0-2 1-2 0-1 0-1 0-1 1v-1h-1s-1 1-1 0c1-1 0-1 0-1 0-1-1 0-1 0-1 0-2 1-1 1h1l-1 1h-1c1 0 0 1 0 1 0 1-1 0-1 1zm9 8h-1c1 1 1 0 1 0v-1h1v-1c-1 0-2 1-1 1zm5 2c-1 0-1 0-1 1v-1a1 1 0 0 1-1 1v1h1a3.49 3.49 0 0 1 1-2zm20 4a1 1 0 0 0 1-1c0-1-1-1-1 0zm-31 1c0-1 1 0 0 0zm31 4v-1h-1c-1 1 0 1 0 2a1 1 0 0 0 1-1zm-10 1a1 1 0 0 0 1-1h-1zm-25 2c1-2 2-2 3-2a1 1 0 0 0 1 1v2c-1 0-1 1-2 1a7.58 7.58 0 0 1-2 4h-2s-3 1-3 0c-1 0 0 0 0-1v-1h1c1-1 1-1 2-1a1 1 0 0 0-1-1 3.1 3.1 0 0 1 1-2h2zm30 3a1 1 0 0 0-1-1 1 1 0 0 0 1 1zm-26-1c-1 0 1-1 1-1 0 1 0 1-1 1zm-6 13zm2 3c-1 0-1 0 0 1 0 0 1-1 0-1zm0 2s1 1 1 0c-1-1-1 0-1 0zm31 13h1c0-1-1-1-1 0zm-14 3c1 1 2-2 2-2 0-1 0-2-1-2l-1 1a3.49 3.49 0 0 1-1 2 1 1 0 0 1 1 1zm-2 1a1.39 1.39 0 0 0 2 0h1c1 0 1 1 0 2 0 1 1 3-1 3 0 1-2 2-2 0v-2c0-1 1-1 0-1zm33 1zm-41 1c0-1-1 0-1 0 1 0 1 1 2 1 0-1 0-1-1-1zm44 0h-1l-1 1s2 1 2 0zm-46 0h1c0 1-1 1-1 2h-1v-1c-1 0-1-1 0-1 0 0 1-1 1 0zm-4 1v1c-1 0 0 1 0 1 1-1 1-2 0-2zm47 3s1 1 1 0c1 0 0 0 0-1a1 1 0 0 0-1 1zm-94-18c-1 0-1 1 0 1 0 0 1 0 0-1zm98 18c-1 0-1 2 0 2s1-2 0-2zm-100-17c1 0 1-1 0-1s-1 0 0 1zm89 20v-1c-1-1-1-1 0 1zm-86-17c1 1 1 0 0 0 0-1-2 0 0 0zm96 18h-1v-1s-1 0 0-1l1 1a1 1 0 0 1 1 1zm-3-1a1 1 0 0 0 1 1v-1zm5 0c-1 0-1 0-1 1h1v-1zm-3 2c-1 0-1 0-1 1h1zm-27 1s-1-1-1 0 1 1 1 0zm35 1v-1c0-1-2 0-1 1 0 1 0 0 1 0zm-8-2h1c0 1 0 1 1 1-1 0-1 1 0 1v-3h-1a1 1 0 0 1-1 1zm6 3v1c-1 0-1 0-1-1a1 1 0 0 1 1-1zm-5 3c1 0 2-1 3-1v-1h-1c-1 0-3 1-3 0h-1s-1-1-1 0c-1 0 0 1 0 1a3.67 3.67 0 0 1 3 1zm21-5h-1c-1 0-2 1-4 2a1.39 1.39 0 0 0 0 2 3.49 3.49 0 0 0 2-1c1-1 2-1 2-2zm-109 11h2c0-1-2-1-2 0zm-7-2c0-1-1-2-1-1s1 2 1 1zm6 2c1 0 1 0 1 1s-1 1-2 1v-1zm-3 2l1-1a1 1 0 0 0-1-1c-1 0-1 1 0 2zm-3-2v-1c0-1 1 0 1 0h2a10.07 10.07 0 0 1-3 1zm-2-1s-1 1 0 1c1 1 1-1 0-1zm121-26c1-1 4 0 4-2-1-1-1-3-2-3h-2c-1 0-1-1-2-1s-1-1-2-1c-1-1-4-1-5-2a1 1 0 0 1-1 1h-1v1c-1 0 0 1-2 1v-1c0-1-2-1-3-2a1 1 0 0 0 1-1h-2c-1-1 0-1 0-1a1 1 0 0 0-1-1v1a1 1 0 0 0-1 1c0 1 0 1-1 1 0 1 1 1 0 3-1 1-1 3-1 4s-1 1 0 2a1 1 0 0 0 1 1c0 1 2 2 3 2 2-1 3-1 4-2 2-2 3-2 6-1 0 0 2 1 2 0 1 0 3 1 4 1a1 1 0 0 1 1-1zm-20 5l2-1h-1a3.67 3.67 0 0 0-3 1h2zm9-17a3.49 3.49 0 0 1-2 1c1 0 1 0 2 1 0 0 0 1 1 0h3v-2h1a3.49 3.49 0 0 0-2-1 1 1 0 0 0 1-1v-1c-1 1-1 1-2 1a2.15 2.15 0 0 1-2 2zm2-54c-2 0 3 3 3 4 1 0 0-2 0-2a2.15 2.15 0 0 1-2-2h-1zm18 51c-1 1 0 1 0 2v2c2 1 3 3 5 4 1 1 3 1 4 2 0 1 0 1 1 1h1c1 0 0 1 0 1v4a1 1 0 0 0 1 1c1 1 1 2 2 2l1-1c1 1 2 1 4 1a3.1 3.1 0 0 0 2-1l1-1a13.8 13.8 0 0 1-3-4l-1-1h-1c-1 0 0-1 0-1 1 0-1 0-2-1a1.39 1.39 0 0 1 0-2c1 0 1 1 1 0l1-1h-2c0-1-2-2-2-1a3.1 3.1 0 0 0 1 2h-1c-1-1-1-2-1-1-1-2-1-2-2-2h-2v-1c-1-1-3-1-3-2-1-1 1-1 1-1h-1v-1c0-1 1-1 2-1 0-1 1 0 1 0h1c1-1-1-1-1-1-2 0-2-2-3-3l-1 1h-2c0 1 0 1-1 2a3.1 3.1 0 0 1-1 2zm-38 28v-1h-2c1 0 1 0 2 1zm125 34zm-162-68zm-10 4zm88 154c1-1-2 0-1-2 0-1 0-1-1-2 2 3 0 6 1 9h1v-1c-1 0-1 0-1-1s1-2 1-3zm-6-25c-1 0-1 1-1 2s-1 3 0 5a5.2 5.2 0 0 1 4-2v-1c1-1 2-2 2-3a1 1 0 0 1 1-1h1c-1-1-2 0-3-1h-1c-1 0-2 1-3 1zm-8 10c-1 2 1 4-1 6l3 2c1 2 0 3 2 3a1 1 0 0 0 1-1s-4-4-3-5c-1 0-2-2-1-3-1 0-1 0-1-1zm38-98zm-83-102c-1 1-1 1-2 0a1 1 0 0 0 1 1c-2 1-4 1-5 2h1c0 1 0 1-1 1l-1 2c0-1 0-1 1-2-1 1-1 1-2 1h1l-2 2c0 1 0 1-1 1-1 1-1 1-3 0l-1 1h1c1 0 0 0 0 1h-1a1 1 0 0 1-1 1h1l-2 2h-1c0-1 0-1 1-2a3.49 3.49 0 0 1-2 1 1 1 0 0 1 1 1c-2 1-3 1-7 2v-1c-1 0-5 2-6 2h-2c-1 0-2-1-3 0a1 1 0 0 1-1 1c-1 0-1 1-2 1v-1l-6 3c-2 2-3 2-3 2v-1l1-1a1 1 0 0 0-1-1c2-3 2-3 7-6h-1a3.1 3.1 0 0 1 2-1l1-1c0-1 5-3 7-3h2l1-1h-2c0-1 0-1 3-2v1a1 1 0 0 1 1-1 3.67 3.67 0 0 1 3-1 14.39 14.39 0 0 0 3-2c3-1 3-2 3-3h-1l1-1a1.39 1.39 0 0 1 2 0c0-1 1-1 2-1h2c2 0 3-2 4 0 2-1 2-1 3-1l-1 1h1v1a1 1 0 0 1 1-1h3v1h-2l1 1a3.1 3.1 0 0 0-2 1c1 0 1-1 2-1v1l1-1c1 0 1 0 0 1zm-28 6zm-3 3zm0 6zm4-8l1-1h-1zm15 2v-1zm1-1zm2-1zm-41 3v-1 1zm-26-7zm77-31zm103 155zm-1 14h-1c0 1-1 1 0 1s2 0 2-1zm-49-161zm-33 27v2h1v2c1 1 0 1 1 2h2c1 2 3 0 3 0h-2a1 1 0 0 0-1-1c-1-1-1-2-2-2v-1l-1-1a1 1 0 0 1 1 1v-2h-1c1 0 1-2 1-3h-1l-1 2h-1l1 1zm33-27zm-67-7zm3 0l1-1a10.07 10.07 0 0 0-3 1h2zm86 19l1 1zm0 0zm-2-3h1a1 1 0 0 1 1 1h2c1-1 3 0 3 0h2v1a1 1 0 0 0-1-1l-1-1v1l-2-1c0-1 0-1-1-1s-1 1-2 1h-2zM172 298c0-1-1-1-1 0zm78 58a1 1 0 0 0-1 1h1a1 1 0 0 0 1-1zm-63-149zm8-9v1c1-1-1-2-5 0l-1 1c0-1 0-1-1-1h-1a1 1 0 0 0 1 1c-2-1-2 2-2 2 0 1 0 1 1 1h-1a1 1 0 0 0 1 1h-2c0 1 3 0 3 0 0 1-1 1-2 2a1 1 0 0 0 1 1c1-1 2-1 2-2h-1a1 1 0 0 0 1-1l1-1c2 0 2-1 2-1h-1c1-1 0-1 0 0h-1l1-1v-1c1 0 1 1 1 0h-1c1-1 1-1 2-1s1 0 2-1zm-7 7c0 1 0 1-1 1 1 0 1 0 1-1zm46-56h1c-1 0-1 0-1 1l1-1-1 1v-1zm1 0zm137 236a3.49 3.49 0 0 1-1 2s2-2 1-2zM238 149c-1 0-1 1 0 0zm-50 47v1s2-3 2-4c0 0-2 2-2 3zm48-47zm-23 32a1 1 0 0 0-1 1 1 1 0 0 0 1-1zm-18-1zm9-3h-2a1 1 0 0 0 1 1h1zm-1 0zm-30 123v-1a1 1 0 0 0-1 1zm2 2v1h1zm-3 1a1 1 0 0 0-1 1s1 1 1 0zm-1 1zm3 0zm-1 0s-1 0 0 1zm-1-6v1h-1a1 1 0 0 1 1-1zm64-149s-1 1-1 0l-1 1h2v-1zm132 240a3.49 3.49 0 0 0-2 1l2-1zM237 149zm124 228a1 1 0 0 1-1 1c-1 2-3 4-4 6-1 1-3 2-4 4-1-1-5 2-5 3-1 1-1 3-2 5s-3 3-4 5v2c0 1-1 1 0 2a13.29 13.29 0 0 0 7-3c1-1 8-9 10-14a7.58 7.58 0 0 0 2-4v1l1-1c1-1 1-6 0-7zm-1 7zM243 163h-1a1 1 0 0 0-1 1 4.94 4.94 0 0 0 3-1zm3 1zm3 1h-1a1 1 0 0 0-1-1v1h-2a1.88 1.88 0 0 0 3 0zm-3-6h-2s0-1-1 0c0-1-2 0-2 0a3.1 3.1 0 0 0 2 1l1 1h2c0-1 3-1 0-2zm-21 12zm-6 4zm22-9zm-11 8zm35-29zm-37 28c0 1 0 1 1 1h1l1-1h-3zm-10 2h1v-1zm2 0h1v-1a1 1 0 0 0-1 1zm16-10h1c0-1-1 0-1 0zm7-5h-1c0-1-1 0-1 0-1 0-1-1-2 0l-1 1v-1h1c-1-1-3 0-3 0h-1l-1 1a3.1 3.1 0 0 0 1 2h-1l-1 1h2c-1 0 0 1 0 0h1a3.49 3.49 0 0 0 2-1c3 1 3 1 4 0h1c-1-1-2 0-3 0a4.94 4.94 0 0 0 3-1h-2c1 0 1 0 1-1 1 0 1 0 1 1 0-1 1-1 0-2zm-10 5c1 0 0-1 0-1a1 1 0 0 1-1 1zm0-2zm5 2h1c-1 0-1 1 0 1s2 0 2-1c1 0 1 1 2 1a1 1 0 0 1 1-1h-1v-1a1 1 0 0 0-1 1h-1l1-1a22.69 22.69 0 0 0-4 1zm8 1zm-14 6zm1 0zm15-5h1v-1l-4 1h-1v1c0 1 1 0 1 0v1h1c1 0 1 0 1-1a1 1 0 0 0-1-1h2zm-14-1zm-3 7c0 1 1 0 1 0zm17-9v-1l1-1h-1c0-1-1-1-1 0a1 1 0 0 0-1 1v-1a1 1 0 0 0-1 1c0 1 2 1 3 1zm-14 8s-1-1-1 0h1zm70-9h-1v1c1 0 1 0 2-1zm-67-13zm67 21zm-2-6s1 1 1 0c2 1 1 0 2 0v-1h-3v1zm2-11h-1v1c1 0 2 0 2-1zm65 14zm-149 3h-1c0 1 0 1 1 1-1 1-1 2 0 1h1l1-1 1-1h2v-1c-1 0-3 0-4 1a1 1 0 0 0-1-1v1zm83-5c0-1-1 0-1 0h1zm-83 15l2-1h1v-1h1c0-1 1-1 2-1h-1l1-1c0 1 0 1 1 0 0 1 0 1-1 1l-1 1v1h-1c1 0 2 0 2-1v1l1-1h1s0 1 1 0v-1h1c1 0 1 0 1-1v-1h1l1-1h1c-1 1-1 1 0 1v-1h1l1-1h1s1-1 0-1c1 0 1 0 2-1h-1a3.67 3.67 0 0 0 3-1 2.15 2.15 0 0 0 2-2c-1 0-2 1-3 1h1a1.39 1.39 0 0 1-2 0c1-1 3 0 4-1a4.83 4.83 0 0 0-4 0c0-1-1 0-1 0h-1c1-1 3-1 4-1h2c-1-1-2-1-6 0h-2c0 1-1 2-1 3h-1c1 1 2 0 3 0-1 0-1 0-1 1h-2v1c-1 0-1-1-2 0h1a1 1 0 0 0-1 1h-1c-2 1-2 1-4 1h-2v-1c-1 0-3 0-3 1h1a1 1 0 0 0-1 1h1a3.49 3.49 0 0 1-2 1v1h-2a1 1 0 0 1-1 1 1 1 0 0 0 1-1l-1 3a3.1 3.1 0 0 0 2-1c1-1 1-1 2-1a3.1 3.1 0 0 1-2 1v1c1 0 1 0 2-1zm11-4zm-5-1c0 1 0 1 1 1a1 1 0 0 1 1-1h-2zm7-13zm0-1zm23-14zm-14 8c1-1 0-1 0-1zm0-1zm-12 11h1c0-1 0-1-1 0zm-5 2zm-1 2v-1h1v-1a1 1 0 0 1-1 1zm-54 24zm19-16l-1 1c-1 0-1 0-1 1l2-4h1v-1a1 1 0 0 0 1-1v-1c0 1 0 1 1 1a1 1 0 0 1-1 1h1a2.15 2.15 0 0 1-2 2zm29 3v1l1-1h-1zm0-8c0-1 0-1-1-1v1h1z" fill="#282828"/><path d="M299 0c156 0 284 121 297 274H495c-13-97-96-172-196-172-110 0-198 88-198 197 0 110 88 198 198 198 95 0 175-67 193-157h103c-20 146-145 258-296 258C133 598 0 465 0 299 0 134 133 0 299 0z" fill="#282828"/></svg>